# xmcd
#
# Track frame offsets:
#	150
#	18864
#	37260
#	63936
#	82093
#	105711
#	134760
#	153716
#	171266
#	186948
#	208501
#	225099
#	242570
#	256042
#	274279
#
# Disc length: 3920 seconds
#
# Revision: 0
# Processed by: cddbd v1.5.1PL2 Copyright (c) Steve Scherf et al.
# Submitted via: dBpowerAMP V4.0
#
DISCID=cf0f4e0f
DTITLE=Smokey Robinson - The Very Best
DYEAR=1900
DGENRE=Soul
TTITLE0=Being with you
TTITLE1=One Heart Beat
TTITLE2=Cruising
TTITLE3=Just to see her again
TTITLE4=Let Me Be the Clock
TTITLE5=Tell Me tomorrow
TTITLE6=Everything you touch
TTITLE7=I am I am
TTITLE8=Baby come close
TTITLE9=The Agony and the Ecstacy
TTITLE10=Baby that's backatcha
TTITLE11=Open
TTITLE12=There will come a Day (I'm gonna Happen to You)
TTITLE13=Daylight and Darkness
TTITLE14=I've made love to you a thousand Times
EXTD=
EXTT0=
EXTT1=
EXTT2=
EXTT3=
EXTT4=
EXTT5=
EXTT6=
EXTT7=
EXTT8=
EXTT9=
EXTT10=
EXTT11=
EXTT12=
EXTT13=
EXTT14=
PLAYORDER=
